<svg width="48" height="24" viewBox="0 0 48 24" fill="none" xmlns="http://www.w3.org/2000/svg">
<rect x="0.375" y="0.375" width="47.25" height="23.25" rx="1.125" fill="white"/>
<rect x="0.375" y="0.375" width="47.25" height="23.25" rx="1.125" stroke="#F5F5F5" stroke-width="0.75"/>
<path fill-rule="evenodd" clip-rule="evenodd" d="M22.8651 15.385V11.8634H24.6894C25.4369 11.8634 26.0678 11.6138 26.5822 11.1216L26.7056 10.9969C27.6452 9.97782 27.5834 8.39033 26.5822 7.44753C26.0815 6.94841 25.3957 6.67805 24.6894 6.69191H21.761V15.385H22.8651ZM22.8653 10.7956V7.75928H24.7173C25.1151 7.75928 25.4923 7.91179 25.7736 8.18908C26.3703 8.77139 26.384 9.74191 25.8079 10.345C25.5266 10.6431 25.1288 10.8095 24.7173 10.7956H22.8653ZM31.8561 9.90271C31.3829 9.46597 30.7382 9.24414 29.9221 9.24414C28.8729 9.24414 28.0842 9.63235 27.563 10.4018L28.5368 11.0188C28.8934 10.492 29.3804 10.2285 29.9976 10.2285C30.3885 10.2285 30.7657 10.3741 31.0606 10.6375C31.3486 10.8871 31.5132 11.2476 31.5132 11.6289V11.8853C31.088 11.6496 30.5531 11.5249 29.8947 11.5249C29.1266 11.5249 28.5094 11.7051 28.0499 12.0725C27.5904 12.4399 27.3572 12.9252 27.3572 13.5422C27.3435 14.1037 27.5836 14.6375 28.0088 14.9979C28.4408 15.3862 28.9895 15.5803 29.6341 15.5803C30.3953 15.5803 30.9989 15.2406 31.4583 14.5612H31.5063V15.3862H32.5625V11.719C32.5625 10.9495 32.3293 10.3394 31.8561 9.90271ZM28.8593 14.2908C28.633 14.1244 28.4958 13.8541 28.4958 13.5629C28.4958 13.2371 28.6467 12.9667 28.9416 12.7518C29.2434 12.5369 29.6207 12.426 30.0665 12.426C30.6838 12.4191 31.164 12.5577 31.5069 12.835C31.5069 13.3064 31.3217 13.7154 30.9582 14.062C30.629 14.3948 30.1831 14.582 29.7167 14.582C29.4081 14.5889 29.1062 14.4849 28.8593 14.2908ZM34.9353 17.9984L38.6249 9.43701H37.4247L35.7171 13.7073H35.6965L33.9477 9.43701H32.7476L35.1684 15.0036L33.7968 17.9984H34.9353Z" fill="#3C4043"/>
<path d="M19.0533 11.102C19.0533 10.7623 19.0259 10.4226 18.971 10.0898H14.3145V12.0101H16.9822C16.8725 12.6271 16.5159 13.1816 15.9947 13.5283V14.7761H17.5857C18.5184 13.9095 19.0533 12.6271 19.0533 11.102Z" fill="#4285F4"/>
<path d="M14.3145 15.9838C15.6449 15.9838 16.7697 15.5401 17.5858 14.7776L15.9947 13.5298C15.5489 13.8348 14.9797 14.0081 14.3145 14.0081C13.0252 14.0081 11.9348 13.1277 11.5439 11.9492H9.90479V13.2386C10.7415 14.9232 12.4491 15.9838 14.3145 15.9838Z" fill="#34A853"/>
<path d="M11.5442 11.9477C11.3384 11.3308 11.3384 10.6583 11.5442 10.0344V8.75195H9.90487C9.19838 10.1592 9.19838 11.823 9.90487 13.2302L11.5442 11.9477Z" fill="#FBBC04"/>
<path d="M14.3145 7.97601C15.0209 7.96214 15.6998 8.2325 16.2073 8.72469L17.6201 7.29664C16.7217 6.4509 15.5421 5.98644 14.3145 6.0003C12.4491 6.0003 10.7415 7.06788 9.90479 8.75242L11.5439 10.0418C11.9348 8.85641 13.0252 7.97601 14.3145 7.97601Z" fill="#EA4335"/>
</svg>
