<svg width="54" height="24" viewBox="0 0 54 24" fill="none" xmlns="http://www.w3.org/2000/svg">
<rect x="0.375" y="0.375" width="53.25" height="23.25" rx="1.125" fill="white"/>
<rect x="0.375" y="0.375" width="53.25" height="23.25" rx="1.125" stroke="#F5F5F5" stroke-width="0.75"/>
<path fill-rule="evenodd" clip-rule="evenodd" d="M9.90647 6H6.4022C6.16237 6 5.95842 6.17307 5.92096 6.40831L4.50367 15.334C4.47554 15.5102 4.61289 15.6689 4.79272 15.6689H6.46564C6.70546 15.6689 6.90941 15.496 6.94687 15.2603L7.32907 12.8528C7.36596 12.6172 7.57034 12.4441 7.80974 12.4441H8.91903C11.2273 12.4441 12.5595 11.3345 12.9076 9.13587C13.0643 8.17383 12.9142 7.4181 12.4606 6.88875C11.9626 6.30751 11.0792 6 9.90647 6ZM10.3106 9.26055C10.119 10.5096 9.15827 10.5096 8.22939 10.5096H7.7005L8.07151 8.17691C8.09361 8.03592 8.21647 7.93213 8.35999 7.93213H8.6024C9.2352 7.93213 9.83212 7.93213 10.1405 8.2904C10.3245 8.5041 10.3808 8.82174 10.3106 9.26055Z" fill="#28356A"/>
<path fill-rule="evenodd" clip-rule="evenodd" d="M20.4709 9.15292H18.7928C18.6499 9.15292 18.5263 9.2567 18.5043 9.3977L18.43 9.86389L18.3127 9.69495C17.9495 9.17116 17.1393 8.99609 16.3308 8.99609C14.4763 8.99609 12.8925 10.3912 12.5841 12.3482C12.4238 13.3244 12.6517 14.2579 13.2093 14.9088C13.7207 15.5073 14.4524 15.7568 15.3228 15.7568C16.8171 15.7568 17.6455 14.8025 17.6455 14.8025L17.5707 15.2657C17.5426 15.4428 17.6799 15.6016 17.8588 15.6016H19.3702C19.6106 15.6016 19.8135 15.4285 19.8514 15.1928L20.7584 9.4878C20.7871 9.31216 20.6502 9.15292 20.4709 9.15292ZM18.1317 12.3975C17.9698 13.3497 17.2089 13.989 16.2384 13.989C15.7512 13.989 15.3618 13.8337 15.1116 13.5396C14.8636 13.2475 14.7695 12.8316 14.8483 12.3684C14.9995 11.4244 15.7731 10.7642 16.7289 10.7642C17.2054 10.7642 17.5927 10.9216 17.8479 11.2181C18.1035 11.5179 18.205 11.9363 18.1317 12.3975Z" fill="#28356A"/>
<path fill-rule="evenodd" clip-rule="evenodd" d="M29.2789 9.29492H27.5925C27.4317 9.29492 27.2805 9.37433 27.1894 9.5072L24.8636 12.9101L23.8777 9.63993C23.8157 9.43535 23.6257 9.29492 23.4104 9.29492H21.7534C21.5519 9.29492 21.4121 9.49038 21.4761 9.67871L23.3336 15.093L21.5874 17.5417C21.45 17.7346 21.5884 17.9998 21.8256 17.9998H23.5099C23.6697 17.9998 23.8193 17.9224 23.91 17.7922L29.5186 9.75042C29.653 9.5581 29.515 9.29492 29.2789 9.29492Z" fill="#28356A"/>
<path fill-rule="evenodd" clip-rule="evenodd" d="M34.9005 6H31.3958C31.1565 6 30.9526 6.17307 30.9151 6.40831L29.4978 15.334C29.4697 15.5102 29.607 15.6689 29.7859 15.6689H31.5844C31.7513 15.6689 31.8942 15.5479 31.9203 15.3829L32.3226 12.8528C32.3595 12.6172 32.564 12.4441 32.8033 12.4441H33.9122C36.2209 12.4441 37.5526 11.3345 37.9011 9.13587C38.0584 8.17383 37.9073 7.4181 37.4538 6.88875C36.9562 6.30751 36.0733 6 34.9005 6ZM35.305 9.26055C35.1139 10.5096 34.1531 10.5096 33.2237 10.5096H32.6955L33.0669 8.17691C33.0889 8.03592 33.2109 7.93213 33.3548 7.93213H33.5973C34.2295 7.93213 34.827 7.93213 35.1354 8.2904C35.3194 8.5041 35.3752 8.82174 35.305 9.26055Z" fill="#298FC2"/>
<path fill-rule="evenodd" clip-rule="evenodd" d="M45.4625 9.15292H43.7855C43.6415 9.15292 43.5191 9.2567 43.4975 9.3977L43.4232 9.86389L43.3054 9.69495C42.9421 9.17116 42.1325 8.99609 41.3239 8.99609C39.4696 8.99609 37.8863 10.3912 37.5779 12.3482C37.418 13.3244 37.6449 14.2579 38.2024 14.9088C38.7149 15.5073 39.4454 15.7568 40.3161 15.7568C41.8101 15.7568 42.6387 14.8025 42.6387 14.8025L42.5639 15.2657C42.5358 15.4428 42.673 15.6016 42.853 15.6016H44.364C44.6033 15.6016 44.8072 15.4285 44.8447 15.1928L45.752 9.4878C45.7797 9.31216 45.6424 9.15292 45.4625 9.15292ZM43.1234 12.3975C42.9625 13.3497 42.2006 13.989 41.2301 13.989C40.7438 13.989 40.3534 13.8337 40.1033 13.5396C39.8554 13.2475 39.7621 12.8316 39.8399 12.3684C39.9922 11.4244 40.7648 10.7642 41.7205 10.7642C42.197 10.7642 42.5844 10.9216 42.8395 11.2181C43.0962 11.5179 43.1976 11.9363 43.1234 12.3975Z" fill="#298FC2"/>
<path fill-rule="evenodd" clip-rule="evenodd" d="M47.3013 6.24535L45.863 15.3345C45.8349 15.5107 45.9721 15.6693 46.151 15.6693H47.597C47.8374 15.6693 48.0412 15.4964 48.078 15.2608L49.4964 6.33546C49.5246 6.15925 49.3873 6 49.2084 6H47.5893C47.4464 6.00043 47.3234 6.10436 47.3013 6.24535Z" fill="#298FC2"/>
</svg>
