<svg width="53" height="24" viewBox="0 0 53 24" fill="none" xmlns="http://www.w3.org/2000/svg">
<rect x="0.875" y="0.375" width="51.25" height="23.25" rx="1.125" fill="white"/>
<rect x="0.875" y="0.375" width="51.25" height="23.25" rx="1.125" stroke="#F5F5F5" stroke-width="0.75"/>
<path fill-rule="evenodd" clip-rule="evenodd" d="M17.3129 17.9062H14.1324L11.7474 8.59693C11.6342 8.16871 11.3939 7.79013 11.0403 7.6117C10.158 7.16331 9.18568 6.80645 8.125 6.62647V6.26807H13.2485C13.9556 6.26807 14.486 6.80645 14.5744 7.43172L15.8118 14.1468L18.9907 6.26807H22.0828L17.3129 17.9062ZM23.8507 17.9062H20.847L23.3203 6.26807H26.324L23.8507 17.9062ZM30.21 9.49252C30.2984 8.8657 30.8287 8.50729 31.4474 8.50729C32.4197 8.4173 33.4788 8.59728 34.3627 9.04413L34.8931 6.53839C34.0092 6.17998 33.0369 6 32.1545 6C29.2392 6 27.1179 7.61205 27.1179 9.84938C27.1179 11.5514 28.6205 12.4451 29.6812 12.9835C30.8287 13.5203 31.2706 13.8787 31.1823 14.4156C31.1823 15.2208 30.2984 15.5792 29.416 15.5792C28.3553 15.5792 27.2947 15.3108 26.3239 14.8624L25.7936 17.3697C26.8543 17.8166 28.0018 17.9965 29.0624 17.9965C32.3313 18.085 34.3627 16.4745 34.3627 14.0572C34.3627 11.013 30.21 10.8346 30.21 9.49252ZM44.875 17.9062L42.4901 6.26807H39.9283C39.398 6.26807 38.8676 6.62647 38.6909 7.16331L34.2745 17.9062H37.3666L37.9837 16.2057H41.783L42.1365 17.9062H44.875ZM40.3703 9.40283L41.2526 13.789H38.7792L40.3703 9.40283Z" fill="#172B85"/>
</svg>
