<svg width="33" height="24" viewBox="0 0 33 24" fill="none" xmlns="http://www.w3.org/2000/svg">
<rect x="0.375" y="0.375" width="32.25" height="23.25" rx="1.125" fill="white"/>
<rect x="0.375" y="0.375" width="32.25" height="23.25" rx="1.125" stroke="#F5F5F5" stroke-width="0.75"/>
<path fill-rule="evenodd" clip-rule="evenodd" d="M13.0742 16.6985V17.3333V17.9681H12.7932V17.8139C12.7041 17.9283 12.5689 18 12.385 18C12.0227 18 11.7386 17.7212 11.7386 17.3333C11.7386 16.9457 12.0227 16.6666 12.385 16.6666C12.5689 16.6666 12.7041 16.7383 12.7932 16.8526V16.6985H13.0742ZM12.42 16.9263C12.1767 16.9263 12.0279 17.1096 12.0279 17.3328C12.0279 17.5559 12.1767 17.7393 12.42 17.7393C12.6524 17.7393 12.8093 17.5638 12.8093 17.3328C12.8093 17.1017 12.6524 16.9263 12.42 16.9263ZM22.5696 17.3328C22.5696 17.1096 22.7185 16.9263 22.9617 16.9263C23.1944 16.9263 23.351 17.1017 23.351 17.3328C23.351 17.5638 23.1944 17.7393 22.9617 17.7393C22.7185 17.7393 22.5696 17.5559 22.5696 17.3328ZM23.6163 16.1887V17.3333V17.9681H23.335V17.8139C23.2459 17.9283 23.1106 18 22.9268 18C22.5644 18 22.2803 17.7212 22.2803 17.3333C22.2803 16.9457 22.5644 16.6666 22.9268 16.6666C23.1106 16.6666 23.2459 16.7383 23.335 16.8526V16.1887H23.6163ZM16.5621 16.9142C16.7432 16.9142 16.8595 17.0258 16.8892 17.2222H16.2186C16.2486 17.0388 16.3619 16.9142 16.5621 16.9142ZM15.924 17.3333C15.924 16.9375 16.1889 16.6666 16.5677 16.6666C16.9298 16.6666 17.1786 16.9375 17.1814 17.3333C17.1814 17.3704 17.1786 17.405 17.1758 17.4394H16.2161C16.2567 17.668 16.4216 17.7504 16.6027 17.7504C16.7323 17.7504 16.8703 17.7024 16.9787 17.6175L17.1164 17.8221C16.9595 17.9523 16.7812 18 16.5866 18C16.1997 18 15.924 17.737 15.924 17.3333ZM19.9606 17.3328C19.9606 17.1096 20.1094 16.9263 20.3527 16.9263C20.5851 16.9263 20.742 17.1017 20.742 17.3328C20.742 17.5638 20.5851 17.7393 20.3527 17.7393C20.1094 17.7393 19.9606 17.5559 19.9606 17.3328ZM21.0069 16.6985V17.3333V17.9681H20.7259V17.8139C20.6365 17.9283 20.5015 18 20.3177 18C19.9553 18 19.6713 17.7212 19.6713 17.3333C19.6713 16.9457 19.9553 16.6666 20.3177 16.6666C20.5015 16.6666 20.6365 16.7383 20.7259 16.8526V16.6985H21.0069ZM18.3736 17.3333C18.3736 17.7185 18.6465 18 19.0631 18C19.2577 18 19.3874 17.9574 19.5279 17.8486L19.393 17.6255C19.2874 17.6999 19.1766 17.7398 19.0547 17.7398C18.8304 17.737 18.6654 17.5777 18.6654 17.3333C18.6654 17.0889 18.8304 16.9296 19.0547 16.9268C19.1766 16.9268 19.2874 16.9666 19.393 17.0411L19.5279 16.818C19.3874 16.7091 19.2577 16.6666 19.0631 16.6666C18.6465 16.6666 18.3736 16.9481 18.3736 17.3333ZM21.6558 16.8523C21.7288 16.7408 21.8343 16.6663 21.9965 16.6663C22.0534 16.6663 22.1345 16.6769 22.1967 16.7009L22.1101 16.9612C22.0506 16.9372 21.9912 16.9292 21.9343 16.9292C21.7505 16.9292 21.6586 17.046 21.6586 17.2561V17.9678H21.3773V16.6982H21.6558V16.8523ZM14.4639 16.7994C14.3286 16.7119 14.1424 16.6666 13.9369 16.6666C13.6095 16.6666 13.3987 16.8207 13.3987 17.0731C13.3987 17.2801 13.5556 17.4078 13.8447 17.4476L13.9774 17.4661C14.1315 17.4874 14.2042 17.5273 14.2042 17.599C14.2042 17.6972 14.1015 17.7531 13.9096 17.7531C13.715 17.7531 13.5745 17.692 13.4798 17.6203L13.3474 17.8352C13.5015 17.9468 13.6961 18 13.9069 18C14.2801 18 14.4964 17.8273 14.4964 17.5856C14.4964 17.3625 14.3262 17.2457 14.0449 17.2059L13.9124 17.1871C13.7908 17.1712 13.6933 17.1475 13.6933 17.0624C13.6933 16.9694 13.7852 16.9137 13.9393 16.9137C14.1043 16.9137 14.264 16.9749 14.3423 17.0226L14.4639 16.7994ZM17.7492 16.8523C17.8219 16.7408 17.9275 16.6663 18.0896 16.6663C18.1466 16.6663 18.2276 16.6769 18.2898 16.7009L18.2032 16.9612C18.1438 16.9372 18.0844 16.9292 18.0274 16.9292C17.8436 16.9292 17.7517 17.046 17.7517 17.2561V17.9678H17.4707V16.6982H17.7492V16.8523ZM15.6914 16.6985H15.2319V16.3133H14.9478V16.6985H14.6857V16.9508H14.9478V17.53C14.9478 17.8246 15.0641 18 15.3965 18C15.5184 18 15.6589 17.9629 15.748 17.9018L15.667 17.6653C15.5831 17.713 15.4912 17.737 15.4182 17.737C15.2777 17.737 15.2319 17.6519 15.2319 17.5245V16.9508H15.6914V16.6985ZM11.49 17.1709V17.9678H11.2059V17.2612C11.2059 17.046 11.114 16.9265 10.9221 16.9265C10.7355 16.9265 10.6059 17.0436 10.6059 17.264V17.9678H10.3218V17.2612C10.3218 17.046 10.2274 16.9265 10.0408 16.9265C9.84861 16.9265 9.72421 17.0436 9.72421 17.264V17.9678H9.44043V16.6982H9.72173V16.8548C9.82726 16.7061 9.96218 16.6663 10.1002 16.6663C10.2976 16.6663 10.4381 16.7514 10.5273 16.8922C10.6464 16.714 10.8166 16.6635 10.9815 16.6663C11.2953 16.669 11.49 16.8709 11.49 17.1709Z" fill="#231F20"/>
<path d="M18.6294 14.5424H14.3706V7.02344H18.6294V14.5424Z" fill="#FF5F00"/>
<path d="M14.6409 10.7826C14.6409 9.2573 15.3678 7.89865 16.4998 7.02308C15.672 6.38282 14.6273 6.00067 13.4919 6.00067C10.8039 6.00067 8.625 8.14156 8.625 10.7826C8.625 13.4236 10.8039 15.5645 13.4919 15.5645C14.6273 15.5645 15.672 15.1823 16.4998 14.542C15.3678 13.6665 14.6409 12.3078 14.6409 10.7826Z" fill="#EB001B"/>
<path d="M24.3749 10.7826C24.3749 13.4236 22.196 15.5645 19.508 15.5645C18.3726 15.5645 17.3279 15.1823 16.4998 14.542C17.6321 13.6665 18.359 12.3078 18.359 10.7826C18.359 9.2573 17.6321 7.89865 16.4998 7.02308C17.3279 6.38282 18.3726 6.00067 19.508 6.00067C22.196 6.00067 24.3749 8.14156 24.3749 10.7826Z" fill="#F79E1B"/>
</svg>
