<svg width="168" height="47" viewBox="0 0 168 47" fill="none" xmlns="http://www.w3.org/2000/svg">
<g clip-path="url(#clip0_515_7756)">
<path d="M46.2035 22.3209C46.2035 32.932 38.3768 41.7493 28.1932 43.3039C28.2792 42.833 28.3032 42.3453 28.2454 41.8511C28.2454 41.8511 28.1846 41.3311 28.105 40.6505C31.7206 40.0345 34.9848 38.3755 37.5722 35.9896C37.4169 35.8604 37.2622 35.6929 37.1097 35.4705C36.4225 34.4678 37.3211 33.473 37.3211 32.5962C37.3211 31.7361 35.5871 31.8068 35.5237 31.2372C35.3046 29.2645 36.7342 29.2376 37.4964 28.4754C38.2586 27.7132 36.7431 25.9804 35.7641 26.0922C34.7785 26.1974 32.0043 25.637 32.2578 23.5145C32.5666 20.9293 28.9641 21.1573 28.4483 19.9507C27.6963 18.1919 28.9464 16.0345 30.5769 15.5444C32.8865 14.8502 35.1617 12.9661 34.984 10.8686C34.7827 8.49316 33.7075 6.35082 31.9365 5.07819C30.0937 4.33161 28.1066 3.86995 26.0276 3.75346C24.1721 3.82685 22.5408 4.2392 22.6152 5.08868C22.7977 7.1704 28.7174 7.7111 27.724 9.65708C27.2061 10.6715 23.3193 12.1033 24.0452 13.6131C24.5174 14.5949 25.6793 13.7534 25.2455 15.6383C25.0459 16.5056 24.2854 18.1352 23.1159 18.2403C21.92 18.352 20.9241 15.1837 17.6689 15.0799C16.13 15.0306 13.962 17.4809 15.8029 19.2193C16.9177 20.272 19.0096 17.9541 19.627 19.7648C20.062 21.0407 19.5684 23.7211 21.599 24.8413C22.3392 25.2497 23.474 25.6056 24.5963 26.1759C22.9305 26.5161 20.8837 27.1509 18.4667 28.0819L16.4303 27.5446C17.2828 26.8349 18.6679 26.3354 18.3194 24.7847C17.8074 22.5065 13.8517 23.3657 11.1246 20.6386C10.2879 19.8021 8.50343 17.0244 8.51075 13.6872C7.15138 16.2693 6.37769 19.2058 6.37769 22.321C6.37769 23.2798 6.45085 24.222 6.5915 25.1422C6.55941 25.1417 6.5277 25.1361 6.49569 25.1361C5.63686 25.1361 4.79455 25.3166 4.01392 25.6577C3.84149 24.5702 3.74946 23.4563 3.74946 22.321C3.74946 10.6166 13.272 1.09375 24.9764 1.09375C36.681 1.0936 46.2035 10.6164 46.2035 22.3209ZM30.2806 28.5079L25.0963 30.8909L25.1767 29.7613L28.5352 28.2452C28.0562 28.2109 27.5599 28.1978 27.0644 28.1978C25.2087 28.1978 22.0736 29.1372 18.6061 30.5135L7.48507 27.5801C6.44579 27.3059 5.33933 27.4748 4.42907 28.0467L3.88226 28.3902C3.34843 28.7256 3.34277 29.5017 3.87161 29.8449L10.5567 34.1819C8.95972 34.9987 7.4446 35.8281 6.10893 36.6203L2.67856 34.8042C2.11823 34.5076 1.45575 34.4724 0.867261 34.7081L0.542554 34.8382C0.0583247 35.032 -0.144532 35.6079 0.111398 36.0625L2.00113 39.4199C1.28815 40.0333 0.882663 40.5417 0.882663 40.8937C0.882663 41.9474 2.17923 42.2107 3.32208 42.2107C5.36047 42.2107 32.2798 36.0471 32.2798 30.4632C32.2796 29.3573 31.5233 28.8042 30.2806 28.5079ZM18.9307 39.4102L24.8544 37.3235C25.1153 37.2315 25.3941 37.4055 25.4262 37.6803L25.9456 42.1205C26.0754 43.2301 25.4786 44.2978 24.4656 44.7688L23.91 45.027C23.563 45.1882 23.1514 45.1018 22.8986 44.8147L18.7502 40.1022C18.5483 39.8727 18.6424 39.5118 18.9307 39.4102Z" fill="#4DA628"/>
</g>
<path d="M67.1936 37.7601V13.1014H57.7543V7.82031H82.2883V13.1014H72.8489V37.7601H67.1936Z" fill="white"/>
<path d="M83.5585 37.7601V15.3053H88.5485V20.7942L88.0079 20.0873C88.299 19.3111 88.6871 18.6042 89.1722 17.9666C89.6574 17.329 90.2534 16.8023 90.9603 16.3864C91.5009 16.0538 92.09 15.7973 92.7276 15.6171C93.3652 15.4231 94.0236 15.3053 94.7028 15.2637C95.382 15.2082 96.0611 15.2221 96.7403 15.3053V20.5863C96.1166 20.3923 95.3889 20.3299 94.5572 20.3992C93.7394 20.4546 92.9979 20.6418 92.3325 20.9606C91.6672 21.2655 91.1058 21.6744 90.6484 22.1873C90.191 22.6863 89.8445 23.2823 89.6088 23.9753C89.3732 24.6545 89.2554 25.4238 89.2554 26.2832V37.7601H83.5585Z" fill="white"/>
<path d="M106.486 38.3839C104.878 38.3839 103.513 38.0789 102.39 37.469C101.281 36.8453 100.436 36.0206 99.8535 34.9948C99.2852 33.9553 99.0011 32.8117 99.0011 31.5642C99.0011 30.5247 99.1605 29.5752 99.4793 28.7158C99.7981 27.8564 100.311 27.101 101.018 26.4495C101.739 25.7842 102.702 25.2297 103.908 24.7862C104.74 24.4813 105.731 24.211 106.881 23.9753C108.032 23.7397 109.334 23.5179 110.79 23.31C112.245 23.0882 113.846 22.8457 115.593 22.5823L113.555 23.705C113.555 22.3744 113.236 21.3972 112.599 20.7734C111.961 20.1497 110.894 19.8378 109.397 19.8378C108.565 19.8378 107.699 20.0388 106.798 20.4408C105.897 20.8427 105.266 21.5566 104.906 22.5823L99.7912 20.9606C100.359 19.1032 101.427 17.5923 102.993 16.428C104.559 15.2637 106.694 14.6815 109.397 14.6815C111.379 14.6815 113.139 14.9865 114.678 15.5963C116.216 16.2062 117.381 17.2597 118.171 18.7567C118.614 19.5883 118.878 20.42 118.961 21.2516C119.044 22.0833 119.086 23.012 119.086 24.0377V37.7601H114.137V33.1444L114.844 34.1008C113.749 35.6117 112.564 36.7067 111.289 37.3859C110.028 38.0512 108.427 38.3839 106.486 38.3839ZM107.692 33.9345C108.732 33.9345 109.605 33.7543 110.312 33.3939C111.032 33.0196 111.601 32.5969 112.017 32.1256C112.446 31.6543 112.737 31.2593 112.89 30.9405C113.181 30.3306 113.347 29.6237 113.389 28.8198C113.444 28.002 113.472 27.3228 113.472 26.7822L115.135 27.198C113.458 27.4752 112.1 27.7109 111.06 27.9049C110.021 28.0851 109.182 28.2515 108.544 28.4039C107.907 28.5564 107.345 28.7227 106.86 28.9029C106.306 29.1247 105.855 29.3673 105.509 29.6306C105.176 29.8801 104.927 30.1573 104.76 30.4623C104.608 30.7672 104.532 31.1068 104.532 31.4811C104.532 31.9939 104.656 32.4375 104.906 32.8117C105.169 33.1721 105.537 33.4493 106.008 33.6434C106.479 33.8374 107.04 33.9345 107.692 33.9345Z" fill="white"/>
<path d="M129.751 37.7601L121.6 15.3053H127.256L132.578 30.8573L137.901 15.3053H143.556L135.406 37.7601H129.751Z" fill="white"/>
<path d="M156.606 38.3839C154.347 38.3839 152.365 37.8779 150.66 36.8661C148.955 35.8542 147.624 34.4612 146.668 32.687C145.725 30.8989 145.254 28.8475 145.254 26.5327C145.254 24.1902 145.739 22.1318 146.71 20.3576C147.68 18.5695 149.017 17.1765 150.722 16.1785C152.427 15.1805 154.389 14.6815 156.606 14.6815C158.866 14.6815 160.848 15.1874 162.553 16.1993C164.271 17.2112 165.609 18.6111 166.565 20.3992C167.522 22.1734 168 24.2179 168 26.5327C168 28.8613 167.515 30.9197 166.545 32.7078C165.588 34.482 164.251 35.875 162.532 36.8869C160.827 37.8849 158.852 38.3839 156.606 38.3839ZM156.606 33.1028C158.422 33.1028 159.774 32.4929 160.661 31.2732C161.562 30.0395 162.012 28.4594 162.012 26.5327C162.012 24.5367 161.555 22.9427 160.64 21.7506C159.739 20.5586 158.394 19.9626 156.606 19.9626C155.373 19.9626 154.361 20.2398 153.571 20.7942C152.781 21.3487 152.192 22.118 151.803 23.1021C151.429 24.0862 151.242 25.2298 151.242 26.5327C151.242 28.5425 151.693 30.1435 152.594 31.3355C153.508 32.5137 154.846 33.1028 156.606 33.1028Z" fill="white"/>
<defs>
<clipPath id="clip0_515_7756">
<rect width="46.2034" height="46.2034" fill="white"/>
</clipPath>
</defs>
</svg>
