<svg width="316" height="56" viewBox="0 0 316 56" fill="none" xmlns="http://www.w3.org/2000/svg">
<mask id="path-1-inside-1_6009_6495" fill="white">
<path d="M0 0H316V56H0V0Z"/>
</mask>
<path d="M315 0V56H317V0H315Z" fill="#767676" mask="url(#path-1-inside-1_6009_6495)"/>
<g clip-path="url(#clip0_6009_6495)">
<path d="M56.0005 27.0541C56.0005 39.9151 46.5142 50.602 34.1715 52.4863C34.2756 51.9155 34.3048 51.3244 34.2347 50.7254C34.2347 50.7254 34.1609 50.0951 34.0645 49.2702C38.4467 48.5236 42.4031 46.5129 45.539 43.6211C45.3508 43.4645 45.1633 43.2615 44.9785 42.9919C44.1456 41.7767 45.2347 40.5708 45.2347 39.5081C45.2347 38.4657 43.1331 38.5514 43.0562 37.861C42.7906 35.4701 44.5234 35.4375 45.4472 34.5137C46.371 33.5899 44.5341 31.4896 43.3476 31.6251C42.153 31.7527 38.7905 31.0734 39.0978 28.5008C39.4722 25.3675 35.1058 25.6439 34.4806 24.1814C33.5691 22.0496 35.0843 19.4349 37.0606 18.8408C39.8599 17.9994 42.6175 15.7158 42.4021 13.1736C42.1581 10.2945 40.8549 7.69791 38.7085 6.15544C36.4749 5.25056 34.0664 4.69102 31.5466 4.54983C29.2977 4.63877 27.3205 5.13856 27.4107 6.16816C27.6319 8.69127 34.8068 9.34662 33.6028 11.7052C32.9751 12.9347 28.2641 14.6701 29.1439 16.5C29.7162 17.69 31.1245 16.6701 30.5987 18.9546C30.3568 20.0058 29.4351 21.9809 28.0176 22.1084C26.5681 22.2437 25.3611 18.4037 21.4156 18.2778C19.5504 18.2181 16.9227 21.188 19.1539 23.2949C20.5051 24.5708 23.0405 21.7614 23.7889 23.956C24.3162 25.5025 23.7179 28.7513 26.179 30.109C27.0762 30.6039 28.4516 31.0354 29.8119 31.7266C27.7929 32.1389 25.312 32.9082 22.3825 34.0367L19.9143 33.3854C20.9476 32.5253 22.6264 31.9198 22.204 30.0404C21.5835 27.2791 16.789 28.3205 13.4837 25.0152C12.4696 24.0013 10.3068 20.6346 10.3156 16.5898C8.66804 19.7194 7.73031 23.2785 7.73031 27.0542C7.73031 28.2164 7.81898 29.3584 7.98945 30.4737C7.95056 30.4731 7.91213 30.4663 7.87333 30.4663C6.83239 30.4663 5.81149 30.685 4.86535 31.0985C4.65635 29.7804 4.54481 28.4304 4.54481 27.0543C4.54481 12.8681 16.0864 1.32617 30.2725 1.32617C44.4589 1.32599 56.0005 12.8679 56.0005 27.0541ZM36.7014 34.553L30.4179 37.4413L30.5154 36.0722L34.586 34.2346C34.0054 34.193 33.4038 34.1772 32.8032 34.1772C30.5542 34.1772 26.7543 35.3157 22.5516 36.9839L9.07248 33.4285C7.81285 33.0962 6.47178 33.3009 5.36852 33.994L4.70576 34.4104C4.05874 34.8168 4.05188 35.7575 4.69286 36.1734L12.7954 41.4301C10.8598 42.42 9.02344 43.4254 7.40456 44.3855L3.24684 42.1843C2.5677 41.8248 1.76476 41.7821 1.05149 42.0678L0.657934 42.2256C0.0710317 42.4605 -0.174838 43.1584 0.135358 43.7094L2.42578 47.7787C1.56162 48.5222 1.07016 49.1384 1.07016 49.565C1.07016 50.8421 2.64163 51.1612 4.02681 51.1612C6.4974 51.1612 39.1244 43.6908 39.1244 36.9229C39.1243 35.5825 38.2076 34.9122 36.7014 34.553ZM22.945 47.7669L30.1246 45.2378C30.4409 45.1263 30.7788 45.3371 30.8178 45.6702L31.4472 51.052C31.6045 52.3968 30.8812 53.6909 29.6534 54.2617L28.98 54.5747C28.5595 54.7701 28.0606 54.6653 27.7542 54.3174L22.7262 48.6057C22.4815 48.3276 22.5955 47.8901 22.945 47.7669Z" fill="#F1EA78"/>
</g>
<path d="M81.4408 45.7665V15.8793H70V9.47852H99.736V15.8793H88.2952V45.7665H81.4408Z" fill="white"/>
<path d="M101.276 45.7665V18.5505H107.324V25.2033L106.668 24.3465C107.021 23.4057 107.492 22.5489 108.08 21.7761C108.668 21.0033 109.39 20.3649 110.247 19.8609C110.902 19.4577 111.616 19.1469 112.389 18.9285C113.162 18.6933 113.96 18.5505 114.783 18.5001C115.606 18.4329 116.429 18.4497 117.252 18.5505V24.9513C116.496 24.7161 115.614 24.6405 114.606 24.7245C113.615 24.7917 112.716 25.0185 111.91 25.4049C111.104 25.7745 110.423 26.2701 109.869 26.8917C109.314 27.4965 108.894 28.2189 108.609 29.0589C108.323 29.8821 108.18 30.8145 108.18 31.8561V45.7665H101.276Z" fill="white"/>
<path d="M129.064 46.5225C127.116 46.5225 125.461 46.1529 124.1 45.4137C122.756 44.6577 121.731 43.6581 121.026 42.4149C120.337 41.1549 119.992 39.7689 119.992 38.2569C119.992 36.9969 120.186 35.8461 120.572 34.8045C120.958 33.7629 121.58 32.8473 122.437 32.0577C123.31 31.2513 124.478 30.5793 125.94 30.0417C126.948 29.6721 128.149 29.3445 129.543 29.0589C130.938 28.7733 132.517 28.5045 134.281 28.2525C136.045 27.9837 137.985 27.6897 140.102 27.3705L137.632 28.7313C137.632 27.1185 137.246 25.9341 136.473 25.1781C135.7 24.4221 134.407 24.0441 132.592 24.0441C131.584 24.0441 130.534 24.2877 129.442 24.7749C128.35 25.2621 127.586 26.1273 127.149 27.3705L120.95 25.4049C121.639 23.1537 122.932 21.3225 124.831 19.9113C126.729 18.5001 129.316 17.7945 132.592 17.7945C134.995 17.7945 137.128 18.1641 138.993 18.9033C140.858 19.6425 142.269 20.9193 143.227 22.7337C143.764 23.7417 144.084 24.7497 144.184 25.7577C144.285 26.7657 144.336 27.8913 144.336 29.1345V45.7665H138.338V40.1721L139.195 41.3313C137.868 43.1625 136.431 44.4897 134.886 45.3129C133.357 46.1193 131.416 46.5225 129.064 46.5225ZM130.526 41.1297C131.786 41.1297 132.844 40.9113 133.701 40.4745C134.575 40.0209 135.264 39.5085 135.768 38.9373C136.288 38.3661 136.641 37.8873 136.826 37.5009C137.179 36.7617 137.38 35.9049 137.431 34.9305C137.498 33.9393 137.532 33.1161 137.532 32.4609L139.548 32.9649C137.515 33.3009 135.868 33.5865 134.608 33.8217C133.348 34.0401 132.332 34.2417 131.559 34.4265C130.786 34.6113 130.106 34.8129 129.518 35.0313C128.846 35.3001 128.3 35.5941 127.88 35.9133C127.477 36.2157 127.174 36.5517 126.973 36.9213C126.788 37.2909 126.696 37.7025 126.696 38.1561C126.696 38.7777 126.847 39.3153 127.149 39.7689C127.468 40.2057 127.914 40.5417 128.485 40.7769C129.056 41.0121 129.736 41.1297 130.526 41.1297Z" fill="white"/>
<path d="M157.262 45.7665L147.384 18.5505H154.238L160.689 37.4001L167.14 18.5505H173.995L164.116 45.7665H157.262Z" fill="white"/>
<path d="M189.812 46.5225C187.073 46.5225 184.671 45.9093 182.605 44.6829C180.538 43.4565 178.925 41.7681 177.766 39.6177C176.624 37.4505 176.053 34.9641 176.053 32.1585C176.053 29.3193 176.641 26.8245 177.817 24.6741C178.993 22.5069 180.614 20.8185 182.68 19.6089C184.747 18.3993 187.124 17.7945 189.812 17.7945C192.55 17.7945 194.953 18.4077 197.019 19.6341C199.102 20.8605 200.723 22.5573 201.883 24.7245C203.042 26.8749 203.621 29.3529 203.621 32.1585C203.621 34.9809 203.033 37.4757 201.857 39.6429C200.698 41.7933 199.077 43.4817 196.994 44.7081C194.927 45.9177 192.533 46.5225 189.812 46.5225ZM189.812 40.1217C192.013 40.1217 193.651 39.3825 194.726 37.9041C195.818 36.4089 196.364 34.4937 196.364 32.1585C196.364 29.7393 195.809 27.8073 194.701 26.3625C193.609 24.9177 191.979 24.1953 189.812 24.1953C188.317 24.1953 187.09 24.5313 186.133 25.2033C185.175 25.8753 184.461 26.8077 183.991 28.0005C183.537 29.1933 183.31 30.5793 183.31 32.1585C183.31 34.5945 183.856 36.5349 184.948 37.9797C186.057 39.4077 187.678 40.1217 189.812 40.1217Z" fill="white"/>
<defs>
<clipPath id="clip0_6009_6495">
<rect width="56" height="56" fill="white"/>
</clipPath>
</defs>
</svg>
