<svg width="146" height="40" viewBox="0 0 146 40" fill="none" xmlns="http://www.w3.org/2000/svg">
<g clip-path="url(#clip0_6013_6748)">
<path d="M40.0001 19.3254C40.0001 28.5118 33.2242 36.1452 24.4079 37.4912C24.4823 37.0835 24.5031 36.6612 24.4531 36.2334C24.4531 36.2334 24.4004 35.7832 24.3315 35.194C27.4616 34.6607 30.2876 33.2244 32.5276 31.1589C32.3931 31.0471 32.2592 30.902 32.1272 30.7095C31.5323 29.8414 32.3102 28.9801 32.3102 28.2211C32.3102 27.4765 30.8091 27.5377 30.7541 27.0446C30.5644 25.3367 31.8021 25.3135 32.462 24.6536C33.1219 23.9937 31.8098 22.4935 30.9623 22.5903C30.109 22.6814 27.7072 22.1963 27.9267 20.3587C28.1941 18.1206 25.0753 18.318 24.6287 17.2734C23.9776 15.7507 25.0599 13.883 26.4716 13.4587C28.471 12.8577 30.4408 11.2265 30.2869 9.41073C30.1126 7.35419 29.1818 5.49948 27.6486 4.39772C26.0532 3.75138 24.3329 3.35171 22.533 3.25086C20.9267 3.31439 19.5144 3.67138 19.5788 4.4068C19.7368 6.20903 24.8617 6.67713 24.0017 8.36184C23.5533 9.24007 20.1884 10.4796 20.8168 11.7867C21.2255 12.6367 22.2315 11.9082 21.8559 13.54C21.6831 14.2909 21.0248 15.7016 20.0123 15.7927C18.9769 15.8894 18.1148 13.1465 15.2966 13.0565C13.9643 13.0139 12.0874 15.1352 13.6811 16.6402C14.6462 17.5516 16.4572 15.5448 16.9918 17.1124C17.3684 18.2171 16.941 20.5376 18.699 21.5074C19.3399 21.8609 20.3223 22.1691 21.2939 22.6628C19.8518 22.9573 18.0797 23.5069 15.9872 24.3129L14.2242 23.8477C14.9623 23.2333 16.1614 22.8009 15.8597 21.4584C15.4165 19.486 11.9919 20.2299 9.63091 17.869C8.90659 17.1448 7.36169 14.74 7.36803 11.8509C6.19117 14.0863 5.52136 16.6285 5.52136 19.3254C5.52136 20.1556 5.5847 20.9712 5.70646 21.7679C5.67868 21.7675 5.65123 21.7626 5.62352 21.7626C4.87999 21.7626 4.15078 21.9188 3.47496 22.2142C3.32568 21.2727 3.246 20.3084 3.246 19.3255C3.246 9.19249 11.49 0.948242 21.6229 0.948242C31.7561 0.948111 40.0001 9.19236 40.0001 19.3254ZM26.215 24.6817L21.7268 26.7448L21.7964 25.7668L24.704 24.4543C24.2893 24.4246 23.8596 24.4133 23.4306 24.4133C21.8241 24.4133 19.1099 25.2265 16.108 26.418L6.48006 23.8785C5.58032 23.6411 4.62241 23.7873 3.83437 24.2824L3.36097 24.5798C2.89882 24.8701 2.89391 25.542 3.35176 25.8392L9.13927 29.5939C7.75672 30.301 6.44502 31.0191 5.28868 31.7049L2.31888 30.1326C1.83378 29.8758 1.26025 29.8454 0.750776 30.0494L0.469665 30.1621C0.0504492 30.3299 -0.125172 30.8284 0.0963969 31.222L1.73241 34.1286C1.11515 34.6597 0.764109 35.0998 0.764109 35.4046C0.764109 36.3167 1.88659 36.5447 2.876 36.5447C4.64071 36.5447 27.9457 31.2087 27.9457 26.3744C27.9456 25.4171 27.2908 24.9382 26.215 24.6817ZM16.389 34.1202L21.5173 32.3137C21.7432 32.2341 21.9846 32.3846 22.0124 32.6226L22.462 36.4667C22.5744 37.4273 22.0577 38.3516 21.1807 38.7593L20.6997 38.9829C20.3993 39.1225 20.043 39.0476 19.8241 38.7991L16.2327 34.7194C16.0579 34.5207 16.1393 34.2082 16.389 34.1202Z" fill="#4DA628"/>
</g>
<path d="M58.172 32.6895V11.3415H50V6.76953H71.24V11.3415H63.068V32.6895H58.172Z" fill="#0E0E0E"/>
<path d="M72.3397 32.6895V13.2495H76.6597V18.0015L76.1917 17.3895C76.4437 16.7175 76.7797 16.1055 77.1997 15.5535C77.6197 15.0015 78.1357 14.5455 78.7477 14.1855C79.2157 13.8975 79.7257 13.6755 80.2777 13.5195C80.8297 13.3515 81.3997 13.2495 81.9877 13.2135C82.5757 13.1655 83.1637 13.1775 83.7517 13.2495V17.8215C83.2117 17.6535 82.5817 17.5995 81.8617 17.6595C81.1537 17.7075 80.5117 17.8695 79.9357 18.1455C79.3597 18.4095 78.8737 18.7635 78.4777 19.2075C78.0817 19.6395 77.7817 20.1555 77.5777 20.7555C77.3737 21.3435 77.2717 22.0095 77.2717 22.7535V32.6895H72.3397Z" fill="#0E0E0E"/>
<path d="M92.1889 33.2295C90.7969 33.2295 89.6149 32.9655 88.6429 32.4375C87.6829 31.8975 86.9509 31.1835 86.4469 30.2955C85.9549 29.3955 85.7089 28.4055 85.7089 27.3255C85.7089 26.4255 85.8469 25.6035 86.1229 24.8595C86.3989 24.1155 86.8429 23.4615 87.4549 22.8975C88.0789 22.3215 88.9129 21.8415 89.9569 21.4575C90.6769 21.1935 91.5349 20.9595 92.5309 20.7555C93.5269 20.5515 94.6549 20.3595 95.9149 20.1795C97.1749 19.9875 98.5609 19.7775 100.073 19.5495L98.3089 20.5215C98.3089 19.3695 98.0329 18.5235 97.4809 17.9835C96.9289 17.4435 96.0049 17.1735 94.7089 17.1735C93.9889 17.1735 93.2389 17.3475 92.4589 17.6955C91.6789 18.0435 91.1329 18.6615 90.8209 19.5495L86.3929 18.1455C86.8849 16.5375 87.8089 15.2295 89.1649 14.2215C90.5209 13.2135 92.3689 12.7095 94.7089 12.7095C96.4249 12.7095 97.9489 12.9735 99.2809 13.5015C100.613 14.0295 101.621 14.9415 102.305 16.2375C102.689 16.9575 102.917 17.6775 102.989 18.3975C103.061 19.1175 103.097 19.9215 103.097 20.8095V32.6895H98.8129V28.6935L99.4249 29.5215C98.4769 30.8295 97.4509 31.7775 96.3469 32.3655C95.2549 32.9415 93.8689 33.2295 92.1889 33.2295ZM93.2329 29.3775C94.1329 29.3775 94.8889 29.2215 95.5009 28.9095C96.1249 28.5855 96.6169 28.2195 96.9769 27.8115C97.3489 27.4035 97.6009 27.0615 97.7329 26.7855C97.9849 26.2575 98.1289 25.6455 98.1649 24.9495C98.2129 24.2415 98.2369 23.6535 98.2369 23.1855L99.6769 23.5455C98.2249 23.7855 97.0489 23.9895 96.1489 24.1575C95.2489 24.3135 94.5229 24.4575 93.9709 24.5895C93.4189 24.7215 92.9329 24.8655 92.5129 25.0215C92.0329 25.2135 91.6429 25.4235 91.3429 25.6515C91.0549 25.8675 90.8389 26.1075 90.6949 26.3715C90.5629 26.6355 90.4969 26.9295 90.4969 27.2535C90.4969 27.6975 90.6049 28.0815 90.8209 28.4055C91.0489 28.7175 91.3669 28.9575 91.7749 29.1255C92.1829 29.2935 92.6689 29.3775 93.2329 29.3775Z" fill="#0E0E0E"/>
<path d="M112.33 32.6895L105.274 13.2495H110.17L114.778 26.7135L119.386 13.2495H124.282L117.226 32.6895H112.33Z" fill="#0E0E0E"/>
<path d="M135.58 33.2295C133.624 33.2295 131.908 32.7915 130.432 31.9155C128.956 31.0395 127.804 29.8335 126.976 28.2975C126.16 26.7495 125.752 24.9735 125.752 22.9695C125.752 20.9415 126.172 19.1595 127.012 17.6235C127.852 16.0755 129.01 14.8695 130.486 14.0055C131.962 13.1415 133.66 12.7095 135.58 12.7095C137.536 12.7095 139.252 13.1475 140.728 14.0235C142.216 14.8995 143.374 16.1115 144.202 17.6595C145.03 19.1955 145.444 20.9655 145.444 22.9695C145.444 24.9855 145.024 26.7675 144.184 28.3155C143.356 29.8515 142.198 31.0575 140.71 31.9335C139.234 32.7975 137.524 33.2295 135.58 33.2295ZM135.58 28.6575C137.152 28.6575 138.322 28.1295 139.09 27.0735C139.87 26.0055 140.26 24.6375 140.26 22.9695C140.26 21.2415 139.864 19.8615 139.072 18.8295C138.292 17.7975 137.128 17.2815 135.58 17.2815C134.512 17.2815 133.636 17.5215 132.952 18.0015C132.268 18.4815 131.758 19.1475 131.422 19.9995C131.098 20.8515 130.936 21.8415 130.936 22.9695C130.936 24.7095 131.326 26.0955 132.106 27.1275C132.898 28.1475 134.056 28.6575 135.58 28.6575Z" fill="#0E0E0E"/>
<defs>
<clipPath id="clip0_6013_6748">
<rect width="40" height="40" fill="white"/>
</clipPath>
</defs>
</svg>
