<svg width="233" height="64" viewBox="0 0 233 64" fill="none" xmlns="http://www.w3.org/2000/svg">
<g clip-path="url(#clip0_6013_6892)">
<path d="M64.0001 30.92C64.0001 45.6182 53.1587 57.8318 39.0527 59.9853C39.1717 59.333 39.205 58.6574 39.1249 57.9729C39.1249 57.9729 39.0406 57.2525 38.9304 56.3098C43.9386 55.4566 48.4602 53.1585 52.0441 49.8536C51.829 49.6747 51.6148 49.4427 51.4035 49.1346C50.4517 47.7457 51.6963 46.3676 51.6963 45.1531C51.6963 43.9618 49.2945 44.0598 49.2066 43.2707C48.9031 40.5382 50.8835 40.501 51.9393 39.4452C52.995 38.3894 50.8957 35.9891 49.5397 36.1439C48.1744 36.2897 44.3316 35.5135 44.6828 32.5733C45.1106 28.9924 40.1205 29.3083 39.4059 27.6369C38.3642 25.2006 40.0959 22.2122 42.3545 21.5333C45.5537 20.5718 48.7053 17.9619 48.4591 15.0566C48.1802 11.7661 46.6908 8.79859 44.2378 7.03576C41.6851 6.00162 38.9326 5.36214 36.0528 5.20078C33.4827 5.30243 31.223 5.87362 31.3261 7.0503C31.5789 9.93386 39.7787 10.6828 38.4027 13.3784C37.6853 14.7835 32.3014 16.7668 33.3069 18.8581C33.9609 20.2181 35.5704 19.0525 34.9695 21.6634C34.693 22.8648 33.6396 25.122 32.0197 25.2677C30.3631 25.4224 28.9836 21.0338 24.4746 20.8899C22.3429 20.8217 19.3398 24.2158 21.8898 26.6237C23.4339 28.0819 26.3316 24.8712 27.1868 27.3793C27.7895 29.1467 27.1057 32.8596 29.9184 34.4112C30.9438 34.9769 32.5157 35.47 34.0703 36.2599C31.7628 36.7311 28.9276 37.6104 25.5796 38.9L22.7588 38.1558C23.9397 37.1728 25.8583 36.4808 25.3756 34.3328C24.6665 31.177 19.187 32.3672 15.4095 28.5898C14.2506 27.4311 11.7787 23.5834 11.7889 18.9608C9.90589 22.5375 8.83421 26.605 8.83421 30.9201C8.83421 32.2483 8.93554 33.5534 9.13036 34.8281C9.08592 34.8273 9.042 34.8196 8.99766 34.8196C7.80801 34.8196 6.64127 35.0695 5.55996 35.5421C5.32111 34.0357 5.19363 32.4928 5.19363 30.9202C5.19363 14.7074 18.384 1.5166 34.5967 1.5166C50.8097 1.51639 64.0001 14.7072 64.0001 30.92ZM41.9441 39.4901L34.7629 42.7911L34.8743 41.2263L39.5264 39.1262C38.8629 39.0787 38.1754 39.0606 37.489 39.0606C34.9186 39.0606 30.5759 40.3618 25.7728 42.2683L10.3681 38.205C8.92853 37.8252 7.39588 38.0591 6.13502 38.8513L5.37758 39.3271C4.63813 39.7916 4.63029 40.8667 5.36283 41.3421L14.6229 47.3497C12.4108 48.481 10.3121 49.63 8.46192 50.7273L3.71023 48.2116C2.93408 47.8007 2.01643 47.752 1.20127 48.0785L0.751488 48.2588C0.0807431 48.5272 -0.20025 49.3249 0.154259 49.9546L2.77188 54.6052C1.78427 55.4549 1.2226 56.1591 1.2226 56.6467C1.2226 58.1062 3.01857 58.4709 4.60163 58.4709C7.42516 58.4709 44.7132 49.9333 44.7132 42.1985C44.713 40.6667 43.6654 39.9006 41.9441 39.4901ZM26.2224 54.5917L34.4277 51.7013C34.7891 51.5739 35.1753 51.8148 35.2199 52.1955L35.9393 58.3461C36.119 59.883 35.2924 61.362 33.8892 62.0144L33.1196 62.372C32.639 62.5954 32.0688 62.4757 31.7186 62.078L25.9724 55.5504C25.6927 55.2325 25.823 54.7325 26.2224 54.5917Z" fill="white"/>
</g>
<path d="M93.0752 52.304V18.1472H80V10.832H113.984V18.1472H100.909V52.304H93.0752Z" fill="white"/>
<path d="M115.743 52.304V21.2H122.655V28.8032L121.907 27.824C122.31 26.7488 122.847 25.7696 123.52 24.8864C124.192 24.0032 125.017 23.2736 125.996 22.6976C126.745 22.2368 127.561 21.8816 128.444 21.632C129.327 21.3632 130.24 21.2 131.18 21.1424C132.121 21.0656 133.062 21.0848 134.003 21.2V28.5152C133.139 28.2464 132.131 28.16 130.979 28.256C129.846 28.3328 128.819 28.592 127.897 29.0336C126.976 29.456 126.198 30.0224 125.564 30.7328C124.931 31.424 124.451 32.2496 124.124 33.2096C123.798 34.1504 123.635 35.216 123.635 36.4064V52.304H115.743Z" fill="white"/>
<path d="M147.502 53.168C145.275 53.168 143.384 52.7456 141.829 51.9008C140.293 51.0368 139.121 49.8944 138.315 48.4736C137.528 47.0336 137.134 45.4496 137.134 43.7216C137.134 42.2816 137.355 40.9664 137.797 39.776C138.238 38.5856 138.949 37.5392 139.928 36.6368C140.926 35.7152 142.261 34.9472 143.931 34.3328C145.083 33.9104 146.456 33.536 148.049 33.2096C149.643 32.8832 151.448 32.576 153.464 32.288C155.48 31.9808 157.697 31.6448 160.117 31.28L157.294 32.8352C157.294 30.992 156.853 29.6384 155.969 28.7744C155.086 27.9104 153.608 27.4784 151.534 27.4784C150.382 27.4784 149.182 27.7568 147.934 28.3136C146.686 28.8704 145.813 29.8592 145.313 31.28L138.229 29.0336C139.016 26.4608 140.494 24.368 142.664 22.7552C144.833 21.1424 147.79 20.336 151.534 20.336C154.28 20.336 156.718 20.7584 158.849 21.6032C160.981 22.448 162.593 23.9072 163.688 25.9808C164.302 27.1328 164.667 28.2848 164.782 29.4368C164.897 30.5888 164.955 31.8752 164.955 33.296V52.304H158.101V45.9104L159.08 47.2352C157.563 49.328 155.921 50.8448 154.155 51.7856C152.408 52.7072 150.19 53.168 147.502 53.168ZM149.173 47.0048C150.613 47.0048 151.822 46.7552 152.801 46.256C153.8 45.7376 154.587 45.152 155.163 44.4992C155.758 43.8464 156.161 43.2992 156.373 42.8576C156.776 42.0128 157.006 41.0336 157.064 39.92C157.141 38.7872 157.179 37.8464 157.179 37.0976L159.483 37.6736C157.16 38.0576 155.278 38.384 153.838 38.6528C152.398 38.9024 151.237 39.1328 150.353 39.344C149.47 39.5552 148.693 39.7856 148.021 40.0352C147.253 40.3424 146.629 40.6784 146.149 41.0432C145.688 41.3888 145.342 41.7728 145.112 42.1952C144.901 42.6176 144.795 43.088 144.795 43.6064C144.795 44.3168 144.968 44.9312 145.313 45.4496C145.678 45.9488 146.187 46.3328 146.84 46.6016C147.493 46.8704 148.27 47.0048 149.173 47.0048Z" fill="white"/>
<path d="M179.728 52.304L168.438 21.2H176.272L183.645 42.7424L191.018 21.2H198.851L187.562 52.304H179.728Z" fill="white"/>
<path d="M216.928 53.168C213.798 53.168 211.053 52.4672 208.691 51.0656C206.329 49.664 204.486 47.7344 203.161 45.2768C201.856 42.8 201.203 39.9584 201.203 36.752C201.203 33.5072 201.875 30.656 203.219 28.1984C204.563 25.7216 206.416 23.792 208.777 22.4096C211.139 21.0272 213.856 20.336 216.928 20.336C220.057 20.336 222.803 21.0368 225.165 22.4384C227.545 23.84 229.398 25.7792 230.723 28.256C232.048 30.7136 232.71 33.5456 232.71 36.752C232.71 39.9776 232.038 42.8288 230.694 45.3056C229.369 47.7632 227.517 49.6928 225.136 51.0944C222.774 52.4768 220.038 53.168 216.928 53.168ZM216.928 45.8528C219.443 45.8528 221.315 45.008 222.544 43.3184C223.792 41.6096 224.416 39.4208 224.416 36.752C224.416 33.9872 223.782 31.7792 222.515 30.128C221.267 28.4768 219.405 27.6512 216.928 27.6512C215.219 27.6512 213.817 28.0352 212.723 28.8032C211.629 29.5712 210.813 30.6368 210.275 32C209.757 33.3632 209.497 34.9472 209.497 36.752C209.497 39.536 210.121 41.7536 211.369 43.4048C212.637 45.0368 214.489 45.8528 216.928 45.8528Z" fill="white"/>
<defs>
<clipPath id="clip0_6013_6892">
<rect width="64" height="64" fill="white"/>
</clipPath>
</defs>
</svg>
