<svg width="146" height="40" viewBox="0 0 146 40" fill="none" xmlns="http://www.w3.org/2000/svg">
<g clip-path="url(#clip0_515_7860)">
<path d="M40 19.3254C40 28.5118 33.2241 36.1452 24.4078 37.4912C24.4822 37.0835 24.5031 36.6612 24.453 36.2334C24.453 36.2334 24.4003 35.7832 24.3314 35.194C27.4616 34.6607 30.2876 33.2244 32.5275 31.1589C32.3931 31.0471 32.2591 30.902 32.1271 30.7095C31.5322 29.8414 32.3101 28.9801 32.3101 28.2211C32.3101 27.4765 30.809 27.5377 30.754 27.0446C30.5644 25.3367 31.8021 25.3135 32.462 24.6536C33.1218 23.9937 31.8097 22.4935 30.9622 22.5903C30.1089 22.6814 27.7072 22.1963 27.9267 20.3587C28.194 18.1206 25.0752 18.318 24.6286 17.2734C23.9776 15.7507 25.0599 13.883 26.4715 13.4587C28.471 12.8577 30.4407 11.2265 30.2869 9.41073C30.1125 7.35419 29.1817 5.49948 27.6486 4.39772C26.0531 3.75138 24.3328 3.35171 22.5329 3.25086C20.9266 3.31439 19.5143 3.67138 19.5788 4.4068C19.7367 6.20903 24.8616 6.67713 24.0016 8.36184C23.5533 9.24007 20.1883 10.4796 20.8167 11.7867C21.2255 12.6367 22.2314 11.9082 21.8559 13.54C21.6831 14.2909 21.0247 15.7016 20.0122 15.7927C18.9769 15.8894 18.1147 13.1465 15.2965 13.0565C13.9642 13.0139 12.0873 15.1352 13.681 16.6402C14.6461 17.5516 16.4572 15.5448 16.9917 17.1124C17.3684 18.2171 16.941 20.5376 18.6989 21.5074C19.3398 21.8609 20.3222 22.1691 21.2938 22.6628C19.8517 22.9573 18.0797 23.5069 15.9872 24.3129L14.2242 23.8477C14.9622 23.2333 16.1614 22.8009 15.8597 21.4584C15.4165 19.486 11.9918 20.2299 9.63085 17.869C8.90653 17.1448 7.36163 14.74 7.36797 11.8509C6.19111 14.0863 5.5213 16.6285 5.5213 19.3254C5.5213 20.1556 5.58464 20.9712 5.7064 21.7679C5.67862 21.7675 5.65117 21.7626 5.62346 21.7626C4.87993 21.7626 4.15071 21.9188 3.4749 22.2142C3.32562 21.2727 3.24594 20.3084 3.24594 19.3255C3.24594 9.19249 11.4899 0.948242 21.6229 0.948242C31.756 0.948111 40 9.19236 40 19.3254ZM26.215 24.6817L21.7267 26.7448L21.7963 25.7668L24.7039 24.4543C24.2892 24.4246 23.8595 24.4133 23.4305 24.4133C21.824 24.4133 19.1099 25.2265 16.1079 26.418L6.48 23.8785C5.58026 23.6411 4.62235 23.7873 3.83431 24.2824L3.36091 24.5798C2.89875 24.8701 2.89385 25.542 3.3517 25.8392L9.13921 29.5939C7.75666 30.301 6.44496 31.0191 5.28862 31.7049L2.31882 30.1326C1.83372 29.8758 1.26019 29.8454 0.750715 30.0494L0.469604 30.1621C0.0503882 30.3299 -0.125233 30.8284 0.0963359 31.222L1.73235 34.1286C1.11509 34.6597 0.764048 35.0998 0.764048 35.4046C0.764048 36.3167 1.88653 36.5447 2.87594 36.5447C4.64065 36.5447 27.9457 31.2087 27.9457 26.3744C27.9456 25.4171 27.2908 24.9382 26.215 24.6817ZM16.389 34.1202L21.5172 32.3137C21.7431 32.2341 21.9845 32.3846 22.0123 32.6226L22.462 36.4667C22.5743 37.4273 22.0576 38.3516 21.1806 38.7593L20.6997 38.9829C20.3993 39.1225 20.0429 39.0476 19.824 38.7991L16.2327 34.7194C16.0578 34.5207 16.1393 34.2082 16.389 34.1202Z" fill="#F1EA78"/>
</g>
<path d="M58.172 32.6895V11.3415H50V6.76953H71.24V11.3415H63.068V32.6895H58.172Z" fill="#252525"/>
<path d="M72.3397 32.6895V13.2495H76.6597V18.0015L76.1917 17.3895C76.4437 16.7175 76.7797 16.1055 77.1997 15.5535C77.6197 15.0015 78.1357 14.5455 78.7477 14.1855C79.2157 13.8975 79.7257 13.6755 80.2777 13.5195C80.8297 13.3515 81.3997 13.2495 81.9877 13.2135C82.5757 13.1655 83.1637 13.1775 83.7517 13.2495V17.8215C83.2117 17.6535 82.5817 17.5995 81.8617 17.6595C81.1537 17.7075 80.5117 17.8695 79.9357 18.1455C79.3597 18.4095 78.8737 18.7635 78.4777 19.2075C78.0817 19.6395 77.7817 20.1555 77.5777 20.7555C77.3737 21.3435 77.2717 22.0095 77.2717 22.7535V32.6895H72.3397Z" fill="#252525"/>
<path d="M92.1889 33.2295C90.7969 33.2295 89.6149 32.9655 88.6429 32.4375C87.6829 31.8975 86.9509 31.1835 86.4469 30.2955C85.9549 29.3955 85.7089 28.4055 85.7089 27.3255C85.7089 26.4255 85.8469 25.6035 86.1229 24.8595C86.3989 24.1155 86.8429 23.4615 87.4549 22.8975C88.0789 22.3215 88.9129 21.8415 89.9569 21.4575C90.6769 21.1935 91.5349 20.9595 92.5309 20.7555C93.5269 20.5515 94.6549 20.3595 95.9149 20.1795C97.1749 19.9875 98.5609 19.7775 100.073 19.5495L98.3089 20.5215C98.3089 19.3695 98.0329 18.5235 97.4809 17.9835C96.9289 17.4435 96.0049 17.1735 94.7089 17.1735C93.9889 17.1735 93.2389 17.3475 92.4589 17.6955C91.6789 18.0435 91.1329 18.6615 90.8209 19.5495L86.3929 18.1455C86.8849 16.5375 87.8089 15.2295 89.1649 14.2215C90.5209 13.2135 92.3689 12.7095 94.7089 12.7095C96.4249 12.7095 97.9489 12.9735 99.2809 13.5015C100.613 14.0295 101.621 14.9415 102.305 16.2375C102.689 16.9575 102.917 17.6775 102.989 18.3975C103.061 19.1175 103.097 19.9215 103.097 20.8095V32.6895H98.8129V28.6935L99.4249 29.5215C98.4769 30.8295 97.4509 31.7775 96.3469 32.3655C95.2549 32.9415 93.8689 33.2295 92.1889 33.2295ZM93.2329 29.3775C94.1329 29.3775 94.8889 29.2215 95.5009 28.9095C96.1249 28.5855 96.6169 28.2195 96.9769 27.8115C97.3489 27.4035 97.6009 27.0615 97.7329 26.7855C97.9849 26.2575 98.1289 25.6455 98.1649 24.9495C98.2129 24.2415 98.2369 23.6535 98.2369 23.1855L99.6769 23.5455C98.2249 23.7855 97.0489 23.9895 96.1489 24.1575C95.2489 24.3135 94.5229 24.4575 93.9709 24.5895C93.4189 24.7215 92.9329 24.8655 92.5129 25.0215C92.0329 25.2135 91.6429 25.4235 91.3429 25.6515C91.0549 25.8675 90.8389 26.1075 90.6949 26.3715C90.5629 26.6355 90.4969 26.9295 90.4969 27.2535C90.4969 27.6975 90.6049 28.0815 90.8209 28.4055C91.0489 28.7175 91.3669 28.9575 91.7749 29.1255C92.1829 29.2935 92.6689 29.3775 93.2329 29.3775Z" fill="#252525"/>
<path d="M112.33 32.6895L105.274 13.2495H110.17L114.778 26.7135L119.386 13.2495H124.282L117.226 32.6895H112.33Z" fill="#252525"/>
<path d="M135.58 33.2295C133.624 33.2295 131.908 32.7915 130.432 31.9155C128.956 31.0395 127.804 29.8335 126.976 28.2975C126.16 26.7495 125.752 24.9735 125.752 22.9695C125.752 20.9415 126.172 19.1595 127.012 17.6235C127.852 16.0755 129.01 14.8695 130.486 14.0055C131.962 13.1415 133.66 12.7095 135.58 12.7095C137.536 12.7095 139.252 13.1475 140.728 14.0235C142.216 14.8995 143.374 16.1115 144.202 17.6595C145.03 19.1955 145.444 20.9655 145.444 22.9695C145.444 24.9855 145.024 26.7675 144.184 28.3155C143.356 29.8515 142.198 31.0575 140.71 31.9335C139.234 32.7975 137.524 33.2295 135.58 33.2295ZM135.58 28.6575C137.152 28.6575 138.322 28.1295 139.09 27.0735C139.87 26.0055 140.26 24.6375 140.26 22.9695C140.26 21.2415 139.864 19.8615 139.072 18.8295C138.292 17.7975 137.128 17.2815 135.58 17.2815C134.512 17.2815 133.636 17.5215 132.952 18.0015C132.268 18.4815 131.758 19.1475 131.422 19.9995C131.098 20.8515 130.936 21.8415 130.936 22.9695C130.936 24.7095 131.326 26.0955 132.106 27.1275C132.898 28.1475 134.056 28.6575 135.58 28.6575Z" fill="#252525"/>
<defs>
<clipPath id="clip0_515_7860">
<rect width="40" height="40" fill="white"/>
</clipPath>
</defs>
</svg>
