<svg width="45" height="24" viewBox="0 0 45 24" fill="none" xmlns="http://www.w3.org/2000/svg">
<rect x="0.875" y="0.375" width="43.25" height="23.25" rx="1.125" fill="white"/>
<rect x="0.875" y="0.375" width="43.25" height="23.25" rx="1.125" stroke="#F5F5F5" stroke-width="0.75"/>
<path fill-rule="evenodd" clip-rule="evenodd" d="M13.6955 7.5471C13.3703 7.95243 12.8499 8.27213 12.3296 8.22646C12.2645 7.6784 12.5193 7.0961 12.8174 6.73644C13.1427 6.3197 13.7118 6.02284 14.1726 6C14.2268 6.57089 14.0154 7.13035 13.6955 7.5471ZM14.167 8.335C13.7086 8.30721 13.2903 8.4802 12.9524 8.61993C12.735 8.70985 12.5509 8.786 12.4108 8.786C12.2536 8.786 12.0618 8.70578 11.8466 8.61572C11.5645 8.4977 11.242 8.36278 10.9039 8.36925C10.1287 8.38067 9.4078 8.84309 9.0121 9.57953C8.19902 11.0524 8.8007 13.2332 9.58668 14.4321C9.97153 15.0258 10.4323 15.6766 11.0394 15.6537C11.3065 15.6431 11.4986 15.5573 11.6974 15.4684C11.9263 15.3661 12.1641 15.2598 12.5354 15.2598C12.8939 15.2598 13.1213 15.3633 13.3396 15.4627C13.5471 15.5572 13.7465 15.6479 14.0424 15.6423C14.6711 15.6309 15.0668 15.0486 15.4517 14.4549C15.867 13.8177 16.0495 13.1958 16.0772 13.1014L16.0805 13.0905C16.0798 13.0898 16.0747 13.0873 16.0657 13.083L16.0656 13.0829L16.0656 13.0829C15.9268 13.016 14.8656 12.5043 14.8554 11.1323C14.8452 9.98073 15.6971 9.39726 15.8312 9.30541C15.8394 9.29982 15.8449 9.29605 15.8474 9.29409C15.3053 8.44918 14.4597 8.35783 14.167 8.335ZM18.5198 15.5798V6.67969H21.6908C23.3278 6.67969 24.4716 7.86713 24.4716 9.60262C24.4716 11.3381 23.3062 12.537 21.6475 12.537H19.8316V15.5798H18.5198ZM19.8314 7.84424H21.3437C22.4821 7.84424 23.1325 8.48363 23.1325 9.60827C23.1325 10.7329 22.4821 11.378 21.3383 11.378H19.8314V7.84424ZM28.8026 14.5114C28.4557 15.2079 27.6914 15.6475 26.8675 15.6475C25.6479 15.6475 24.7969 14.8825 24.7969 13.7293C24.7969 12.5875 25.6208 11.931 27.144 11.834L28.781 11.7312V11.2402C28.781 10.5152 28.3311 10.1213 27.5288 10.1213C26.8675 10.1213 26.3851 10.481 26.2875 11.029H25.1058C25.1438 9.87582 26.1737 9.03662 27.5668 9.03662C29.0683 9.03662 30.044 9.8644 30.044 11.1489V15.579H28.8298V14.5114H28.8026ZM27.2198 14.5917C26.5205 14.5917 26.076 14.2378 26.076 13.6954C26.076 13.1359 26.5043 12.8105 27.3228 12.7592L28.7809 12.6621V13.1645C28.7809 13.998 28.1087 14.5917 27.2198 14.5917ZM34.0713 15.928C33.5455 17.4865 32.9438 18.0003 31.6646 18.0003C31.567 18.0003 31.2418 17.9889 31.1659 17.9661V16.8985C31.2472 16.9099 31.4477 16.9213 31.5507 16.9213C32.1307 16.9213 32.456 16.6644 32.6565 15.9965L32.7758 15.6026L30.5533 9.12305H31.9247L33.4696 14.3809H33.4967L35.0415 9.12305H36.375L34.0713 15.928Z" fill="black"/>
</svg>
